<svg xmlns="http://www.w3.org/2000/svg" xmlns:xlink="http://www.w3.org/1999/xlink" version="1.1" x="0px" y="0px" width="79px" height="18px" viewBox="0 0 96 22" enable-background="new 0 0 96 22" xml:space="preserve" xmlns:xml="http://www.w3.org/XML/1998/namespace"><path fill="#428bca" d="M49.484,5.94h-1.988v14.081c0,1.097,0.889,1.979,1.988,1.979h1.987V7.927  C51.471,6.828,50.582,5.94,49.484,5.94z M49.484,0c-1.237,0-2.239,1-2.239,2.237c0,1.236,1.002,2.239,2.239,2.239  c1.237,0,2.238-1.003,2.238-2.239C51.722,1,50.72,0,49.484,0z M64.382,5.94h1.988c1.098,0,1.987,0.889,1.987,1.987l0,6.972  c0,3.922-3.18,7.102-7.102,7.102c-3.922,0-7.102-3.18-7.102-7.102V5.94h1.988c1.098,0,1.987,0.889,1.987,1.987l0,6.972  c0,1.727,1.4,3.127,3.127,3.127c1.727,0,3.127-1.4,3.127-3.127V5.94z M44.71,13.043V22h-1.988c-1.098,0-1.987-0.889-1.987-1.987  l0-6.97c0-1.727-1.4-3.127-3.127-3.127c-1.727,0-3.127,1.4-3.127,3.127v1.855c0,3.922-3.18,7.102-7.102,7.102  c-3.922,0-7.102-3.18-7.102-7.102V1.232h1.988c1.098,0,1.987,0.889,1.987,1.987v2.72h3.314v1.988c0,1.098-0.882,1.987-1.979,1.987  h-1.335l0,4.984c0,1.727,1.4,3.127,3.127,3.127c1.727,0,3.127-1.4,3.127-3.127V1.232h1.988c1.098,0,1.987,0.889,1.987,1.987v3.447  c0.944-0.463,2.005-0.724,3.127-0.724C41.53,5.942,44.71,9.121,44.71,13.043z M95.589,13.042v8.957h-1.988  c-1.098,0-1.987-0.889-1.987-1.987l-0.001-6.97c0-1.727-1.4-3.127-3.127-3.127c-1.727,0-3.128,1.4-3.128,3.127v8.957h-1.988  c-0.034,0-0.068-0.001-0.103-0.002c-1.05-0.053-1.885-0.921-1.885-1.985v-6.97c0-1.727-1.4-3.127-3.127-3.127  c-1.727,0-3.127,1.4-3.127,3.127v8.957l0,0V22h-1.988c-1.098,0-1.987-0.882-1.987-1.979V5.94h1.988c0.695,0,1.305,0.356,1.661,0.896  c1.022-0.57,2.2-0.896,3.454-0.896c2.009,0,3.823,0.835,5.115,2.175c1.292-1.341,3.106-2.175,5.115-2.175  C92.41,5.94,95.589,9.12,95.589,13.042z M15.287,5.94h-1.988v14.081c0,1.097,0.889,1.979,1.988,1.979h1.987V7.927  C17.274,6.829,16.385,5.94,15.287,5.94z M15.287,0c-1.237,0-2.239,1-2.239,2.237c0,1.236,1.002,2.239,2.239,2.239  c1.237,0,2.238-1.003,2.238-2.239C17.525,1,16.523,0,15.287,0z M11.077,22H7.102C3.18,22,0,18.82,0,14.898V1.232h1.988  c1.098,0,1.987,0.889,1.987,1.987l0,11.679c0,1.727,1.4,3.127,3.127,3.127h1.839c1.18,0,2.136,0.956,2.136,2.136V22z"/></svg>
